<svg width="271" height="165" viewBox="0 0 271 165" fill="none" xmlns="http://www.w3.org/2000/svg">
<path d="M84.4688 61C105.969 49.5077 138.969 43.5 153.669 49.5077C168.368 55.5154 174.219 57.3725 174.219 38.2257C174.219 25.918 206.454 60.3714 213.264 82.3281" stroke="#1F1D2E" stroke-width="1.5" stroke-linecap="round"/>
<path d="M40.5927 92.9052C46.7015 118.814 72.6919 134.859 98.6458 128.739C124.6 122.62 140.685 96.6541 134.576 70.7455C128.467 44.8369 102.477 28.7921 76.5228 34.9116C50.569 41.0311 34.4839 66.9965 40.5927 92.9052Z" fill="white" stroke="#1F1D2E" stroke-width="1.5"/>
<path fill-rule="evenodd" clip-rule="evenodd" d="M53.946 46.2242C48.4568 56.7787 45.8313 63.3133 47.514 70.4497C49.708 79.7551 54.9806 87.0964 66.3324 86.8368C79.25 86.5414 81.6413 95.0145 79.6465 104.915C77.236 116.877 89.4073 117.937 97.6095 116.003C105.646 114.108 114 115.156 116.52 121.337C111.377 125.099 105.41 127.915 98.8153 129.47C72.4594 135.684 46.0643 119.391 39.8601 93.0783C35.7071 75.4645 41.6543 57.8259 53.946 46.2242Z" fill="#1F1D2E"/>
<path d="M133.295 97.736L133.671 98.3852L133.295 97.736ZM143.966 63.7051C143.587 63.5384 143.415 63.0959 143.581 62.7167C143.748 62.3375 144.191 62.1652 144.57 62.3319L143.966 63.7051ZM43.7012 71.7128C32.2642 75.4423 21.3581 81.0274 13.8896 87.3232C6.36802 93.6637 2.58822 100.487 4.68023 106.763L3.2572 107.237C0.849198 100.013 5.31941 92.5858 12.9228 86.1763C20.5793 79.7221 31.6733 74.0572 43.2362 70.2867L43.7012 71.7128ZM4.68023 106.763C5.72911 109.909 8.09534 112.397 11.6194 114.287C15.1526 116.182 19.8135 117.453 25.3535 118.16C36.4323 119.573 50.8525 118.71 66.3516 116.259L66.5859 117.741C51.0246 120.201 36.4448 121.087 25.1637 119.648C19.5238 118.928 14.6647 117.622 10.9105 115.609C7.14704 113.591 4.45834 110.84 3.2572 107.237L4.68023 106.763ZM66.3516 116.259C97.4251 111.346 111.73 109.346 132.92 97.0869L133.671 98.3852C112.207 110.804 97.6331 112.831 66.5859 117.741L66.3516 116.259ZM132.92 97.0869C139.188 93.4598 147.239 87.2513 151.027 80.8457C152.916 77.6528 153.68 74.5242 152.792 71.6759C151.905 68.8321 149.303 66.0514 143.966 63.7051L144.57 62.3319C150.113 64.7689 153.157 67.8072 154.224 71.2293C155.29 74.6469 154.316 78.2312 152.318 81.6093C148.334 88.3461 140.018 94.713 133.671 98.3852L132.92 97.0869Z" fill="#1F1D2E"/>
<path d="M211.21 83.3936C211.723 80.829 215.833 81.3419 217.889 79.2903C217.374 82.3677 216.057 84.1554 214.805 85.4047C213.554 86.6541 210.817 85.3562 211.21 83.3936Z" fill="white"/>
<path d="M230.218 30.0508C230.218 43.4812 230.715 53.0635 229.463 60.2472C228.212 67.4309 220.412 76.7725 217.889 79.2903M217.889 79.2903C215.833 81.3419 211.723 80.829 211.21 83.3936C210.817 85.3562 213.554 86.6541 214.805 85.4047C216.057 84.1554 217.374 82.3677 217.889 79.2903Z" stroke="#1F1D2E" stroke-width="1.5"/>
<path d="M238.535 50.2539C239.474 54.0019 239.787 56.1883 239.787 58.3746C239.787 60.1237 240.412 63.0596 240.725 64.309" stroke="#1F1D2E" stroke-width="1.5"/>
<path d="M216.011 163.276C217.888 163.901 223.207 164.213 226.335 163.276C228.41 162.654 229.142 159.596 229.742 156.717C225.516 157.81 220.703 158.591 216.949 159.216C214.445 159.632 214.23 162.684 216.011 163.276Z" fill="white"/>
<path d="M237.907 83.0488C238.22 90.5449 234.779 113.658 234.153 123.028C233.666 130.324 231.851 146.586 229.742 156.717M229.742 156.717C229.142 159.596 228.41 162.654 226.335 163.276C223.207 164.213 217.888 163.901 216.011 163.276C214.23 162.684 214.445 159.632 216.949 159.216C220.703 158.591 225.516 157.81 229.742 156.717Z" stroke="#1F1D2E" stroke-width="1.5" stroke-linecap="round"/>
<path d="M269.777 147.168C269.777 144.357 267.274 142.795 264.459 140.296C264.459 143.42 264.125 146.731 264.125 149.559C264.125 152.124 264.713 157.729 266.694 156.74C268.88 155.649 269.777 151.228 269.777 147.168Z" fill="white"/>
<path d="M240.1 83.9844C241.977 101.787 242.29 108.971 246.357 117.717C250.424 126.462 262.253 138.339 264.459 140.296M264.459 140.296C267.274 142.795 269.777 144.357 269.777 147.168C269.777 151.228 268.88 155.649 266.694 156.74C264.713 157.729 264.125 152.124 264.125 149.559C264.125 146.731 264.459 143.42 264.459 140.296Z" stroke="#1F1D2E" stroke-width="1.5" stroke-linecap="round"/>
<path d="M235.72 17.457C236.383 21.8439 236.897 23.8955 236.383 26.973" stroke="#1F1D2E" stroke-width="1.5"/>
<path d="M246.668 63.0587C247.92 65.245 247.675 67.4938 247.172 71.5971C246.668 75.7004 245.654 79.3567 244.09 81.8553C242.359 84.6206 237.522 85.5199 235.72 83.3605C234.155 81.4865 234.155 78.0508 234.155 75.5521C234.155 73.0534 234.154 71.0842 234.155 67.4314C234.155 63.9815 234.089 60.9759 238.222 60.2477C242.356 59.5194 245.204 60.5005 246.668 63.0587Z" fill="white" stroke="#1F1D2E" stroke-width="1.5"/>
<path d="M231.245 42.8741C229.993 38.1891 228.653 32.8623 230.217 30.0513C231.781 27.2403 234.657 26.4609 238.438 26.4609C242.219 26.4609 244.604 29.5384 245.118 32.103C245.631 34.6675 245.118 41.6907 245.118 45.4387C245.118 49.1867 241.6 52.127 238.221 52.127C234.842 52.127 232.496 47.5592 231.245 42.8741Z" fill="white" stroke="#1F1D2E" stroke-width="1.5"/>
<path d="M219.943 53.1324C221.998 53.1324 226.621 57.2357 226.621 57.2357C226.621 57.2357 221.484 58.2615 217.888 56.7228C215.941 55.8897 217.888 53.1324 219.943 53.1324Z" fill="white"/>
<path d="M239.969 27C243.469 38 247.685 48.5 247.685 52.6195C247.685 57.6725 226.621 57.2357 226.621 57.2357M226.621 57.2357C226.621 57.2357 221.998 53.1324 219.943 53.1324C217.888 53.1324 215.941 55.8897 217.888 56.7228C221.484 58.2615 226.621 57.2357 226.621 57.2357Z" stroke="#1F1D2E" stroke-width="1.5"/>
<path d="M228.181 3.58306C229.775 1.53642 232.876 1 236.096 1C239.315 1 242.034 2.35416 242.547 4.91872C243.061 7.48328 242.915 11.0989 242.152 13.9153C241.389 16.7316 239.565 18.5646 237.495 19.598C235.425 20.6314 231.463 20.8624 229.216 20.1146C226.969 19.3668 226.108 15.7121 226.107 12.6124C226.107 9.60459 226.587 5.62969 228.181 3.58306Z" fill="white" stroke="#1F1D2E" stroke-width="1.5"/>
<path d="M235.943 1C232.32 1 231.33 2.91695 230.469 5.5C229.607 8.08311 229.468 11.5157 229.469 13.5C229.469 15.4843 229.469 18 231.245 20.3061" stroke="#1F1D2E" stroke-width="1.5" stroke-linecap="round"/>
<path d="M226.469 9.5C226.986 10.5332 229.191 11.4399 231.246 11.5868C233.301 11.7338 234.75 11.7662 237.364 11.4399C239.978 11.1137 242.671 10.2992 242.671 10.2992" stroke="#1F1D2E" stroke-width="1.5" stroke-linecap="round"/>
</svg>
